<?xml version="1.0" encoding="UTF-8" standalone="no"?>
<!DOCTYPE svg PUBLIC "-//W3C//DTD SVG 1.1//EN" "http://www.w3.org/Graphics/SVG/1.1/DTD/svg11.dtd">
<svg version="1.1" xmlns="http://www.w3.org/2000/svg" xmlns:xlink="http://www.w3.org/1999/xlink" preserveAspectRatio="xMidYMid meet" viewBox="0 0 39 39" width="39" height="39"><defs><path d="M35.2 21.18C35.2 21.37 35.2 22.95 35.2 23.14C35.2 23.45 35.44 23.7 35.75 23.7C36.05 23.7 36.29 23.45 36.29 23.14C36.29 22.95 36.29 21.37 36.29 21.18C36.29 20.87 36.05 20.62 35.75 20.62C35.44 20.62 35.2 20.87 35.2 21.18Z" id="f1mPNRy3xP"></path><path d="M5.03 26.27C5.03 25.27 5.03 20.3 5.03 11.36L5.03 10.23C2.82 10.23 1.59 10.23 1.34 10.23C0.6 10.23 0 10.85 0 11.6C0 13.45 0 28.25 0 30.1C0 30.85 0.59 31.45 1.32 31.45C1.49 31.45 2.34 31.45 3.87 31.45C3.39 32.83 3.13 33.6 3.08 33.75C3 33.97 3.06 34.21 3.24 34.36C3.34 34.45 3.46 34.5 3.59 34.5C3.68 34.5 3.77 34.48 3.85 34.43C4.39 34.14 8.7 31.8 9.24 31.5C9.3 31.47 9.36 31.45 9.43 31.45C11.21 31.45 25.44 31.46 27.21 31.46C28.39 31.46 29.36 30.47 29.36 29.26C29.36 29.18 29.36 28.75 29.36 27.98L6.97 27.99C5.68 27.56 5.03 26.99 5.03 26.27Z" id="b2P9nN3bDH"></path><path d="M35.2 21.18C35.2 21.37 35.2 22.95 35.2 23.14C35.2 23.45 35.44 23.7 35.75 23.7C36.05 23.7 36.29 23.45 36.29 23.14C36.29 22.95 36.29 21.37 36.29 21.18C36.29 20.87 36.05 20.62 35.75 20.62C35.44 20.62 35.2 20.87 35.2 21.18Z" id="cc8AzvR2F"></path><path d="M35.74 10.32C36.04 10.32 36.28 10.57 36.28 10.88C36.28 11.68 36.28 18.09 36.28 18.89C36.28 19.19 36.04 19.44 35.74 19.45C35.74 19.45 35.74 19.45 35.75 19.45C36.05 19.45 36.29 19.2 36.29 18.89C36.29 18.09 36.29 11.68 36.29 10.88C36.29 10.57 36.05 10.32 35.75 10.32C35.74 10.32 35.74 10.32 35.74 10.32Z" id="d1HQXk2isz"></path><path d="M36.28 10.88C36.28 10.57 36.04 10.32 35.74 10.32C35.44 10.32 35.2 10.57 35.2 10.88C35.2 11.68 35.2 18.09 35.2 18.89C35.2 19.19 35.44 19.44 35.74 19.45C36.04 19.44 36.28 19.19 36.28 18.89C36.28 17.28 36.28 11.68 36.28 10.88Z" id="cFj2ygMwK"></path><path d="M35.2 10.88C35.2 10.57 35.44 10.32 35.74 10.32C35.74 10.32 35.74 10.32 35.74 10.32C35.43 10.32 35.19 10.57 35.19 10.88C35.19 11.68 35.19 18.09 35.19 18.89C35.19 19.2 35.43 19.45 35.74 19.45C35.74 19.45 35.74 19.45 35.74 19.45C35.44 19.44 35.2 19.19 35.2 18.89C35.2 17.28 35.2 11.68 35.2 10.88Z" id="d1bykm3vhh"></path><path d="M7.78 4.5C6.87 4.5 6.13 5.26 6.13 6.19C6.13 8.2 6.13 24.26 6.13 26.27C6.13 26.49 6.13 26.87 6.97 26.87C7.2 26.87 8.37 26.87 10.47 26.87L10.49 26.87C21.94 26.88 28.3 26.88 29.57 26.88C29.63 26.88 29.7 26.89 29.76 26.93C29.76 26.93 34.98 29.74 35.14 29.8C35.4 29.92 35.65 29.88 35.75 29.79C35.93 29.64 35.99 29.39 35.91 29.18C35.86 29.02 35.6 28.26 35.13 26.88L37.67 26.88C37.67 26.88 37.68 26.88 37.68 26.88C38.41 26.88 39 26.27 39 25.52C39 24.29 39 18.12 39 7.03C39 6.44 39 6.11 39 6.05C39 5.19 38.32 4.5 37.49 4.5C31.55 4.5 10.75 4.5 7.78 4.5ZM35.75 23.7C35.44 23.7 35.2 23.45 35.2 23.14C35.2 22.95 35.2 21.37 35.2 21.18C35.2 20.87 35.44 20.62 35.75 20.62C36.05 20.62 36.29 20.87 36.29 21.18C36.29 21.31 36.29 21.96 36.29 23.14C36.13 23.52 35.95 23.7 35.75 23.7ZM35.75 19.45C35.74 19.45 35.74 19.45 35.74 19.45C35.74 19.45 35.74 19.45 35.74 19.45C35.43 19.45 35.19 19.2 35.19 18.89C35.19 18.09 35.19 11.68 35.19 10.88C35.19 10.57 35.43 10.32 35.74 10.32C35.74 10.32 35.74 10.32 35.74 10.32C35.74 10.32 35.74 10.32 35.75 10.32C36.05 10.32 36.29 10.57 36.29 10.88C36.29 11.41 36.29 14.08 36.29 18.89C36.13 19.26 35.95 19.45 35.75 19.45Z" id="c26pJZ1iU"></path></defs><g><g><g><use xlink:href="#f1mPNRy3xP" opacity="1" fill="#000000" fill-opacity="0"></use><g><use xlink:href="#f1mPNRy3xP" opacity="1" fill-opacity="0" stroke="#000000" stroke-width="1" stroke-opacity="0"></use></g></g><g><use xlink:href="#b2P9nN3bDH" opacity="1" fill="#99b1c6" fill-opacity="1"></use><g><use xlink:href="#b2P9nN3bDH" opacity="1" fill-opacity="0" stroke="#000000" stroke-width="1" stroke-opacity="0"></use></g></g><g><use xlink:href="#cc8AzvR2F" opacity="1" fill="#000000" fill-opacity="0"></use><g><use xlink:href="#cc8AzvR2F" opacity="1" fill-opacity="0" stroke="#000000" stroke-width="1" stroke-opacity="0"></use></g></g><g><use xlink:href="#d1HQXk2isz" opacity="1" fill="#000000" fill-opacity="0"></use><g><use xlink:href="#d1HQXk2isz" opacity="1" fill-opacity="0" stroke="#000000" stroke-width="1" stroke-opacity="0"></use></g></g><g><use xlink:href="#cFj2ygMwK" opacity="1" fill="#000000" fill-opacity="0"></use><g><use xlink:href="#cFj2ygMwK" opacity="1" fill-opacity="0" stroke="#000000" stroke-width="1" stroke-opacity="0"></use></g></g><g><use xlink:href="#d1bykm3vhh" opacity="1" fill="#303030" fill-opacity="1"></use><g><use xlink:href="#d1bykm3vhh" opacity="1" fill-opacity="0" stroke="#000000" stroke-width="1" stroke-opacity="0"></use></g></g><g><use xlink:href="#c26pJZ1iU" opacity="1" fill="#99b1c6" fill-opacity="1"></use><g><use xlink:href="#c26pJZ1iU" opacity="1" fill-opacity="0" stroke="#000000" stroke-width="1" stroke-opacity="0"></use></g></g></g></g></svg>