<?xml version="1.0" encoding="UTF-8" standalone="no"?>
<!DOCTYPE svg PUBLIC "-//W3C//DTD SVG 1.1//EN" "http://www.w3.org/Graphics/SVG/1.1/DTD/svg11.dtd">
<svg version="1.1" xmlns="http://www.w3.org/2000/svg" xmlns:xlink="http://www.w3.org/1999/xlink" preserveAspectRatio="xMidYMid meet" viewBox="0 0 39 39" width="39" height="39"><defs><path d="M34.13 13.53C34.13 8.34 34.13 5.45 34.13 4.87C34.13 3.53 33.03 2.44 31.69 2.44C31.44 2.44 29.49 2.44 29.25 2.44C27.91 2.44 26.81 3.53 26.81 4.87C26.81 4.96 26.81 5.41 26.81 6.22C23.89 3.3 22.26 1.68 21.94 1.35C21.27 0.72 20.66 0 19.5 0C18.34 0 17.73 0.72 17.06 1.35C15.49 2.92 2.91 15.49 1.34 17.06C0.58 17.85 0 18.43 0 19.5C0 20.87 1.05 21.94 2.44 21.94C2.6 21.94 3.41 21.94 4.88 21.94C4.88 30.71 4.88 35.59 4.88 36.56C4.88 37.9 5.97 39 7.31 39C7.8 39 10.24 39 14.63 39C14.63 31.69 14.63 27.62 14.63 26.81C14.63 25.47 15.72 24.37 17.06 24.37C17.55 24.37 21.45 24.37 21.94 24.37C23.28 24.37 24.38 25.47 24.38 26.81C24.38 27.62 24.38 31.69 24.38 39C28.76 39 31.2 39 31.69 39C33.03 39 34.13 37.9 34.13 36.56C34.13 35.59 34.13 30.71 34.13 21.94C35.59 21.94 36.4 21.94 36.56 21.94C37.95 21.94 39 20.87 39 19.5C39 18.43 38.42 17.85 37.66 17.06C37.19 16.59 36.01 15.41 34.13 13.53Z" id="b4j6tGPPxi"></path></defs><g><g><g><use xlink:href="#b4j6tGPPxi" opacity="1" fill="#99b1c6" fill-opacity="1"></use><g><use xlink:href="#b4j6tGPPxi" opacity="1" fill-opacity="0" stroke="#000000" stroke-width="1" stroke-opacity="0"></use></g></g></g></g></svg>