<?xml version="1.0" encoding="UTF-8" standalone="no"?>
<!DOCTYPE svg PUBLIC "-//W3C//DTD SVG 1.1//EN" "http://www.w3.org/Graphics/SVG/1.1/DTD/svg11.dtd">
<svg version="1.1" xmlns="http://www.w3.org/2000/svg" xmlns:xlink="http://www.w3.org/1999/xlink" preserveAspectRatio="xMidYMid meet" viewBox="0 0 39 39" width="39" height="39"><defs><path d="M13.93 14.14L13.93 33.15C13.93 33.15 13.93 33.15 13.93 33.15C13.95 34.88 12.63 36.84 9.89 38.08C6.09 39.79 2.09 38.95 0.63 36.98C-0.83 35 0.24 31.89 4.04 30.17C6.59 29.02 9.24 29.03 11.14 29.75C11.14 28.74 11.14 23.7 11.14 14.63L11.14 4.88L39 0L39 2.44L39 9.75L39 30.71C39 30.71 39 30.71 39 30.71C39.02 32.45 37.7 34.41 34.96 35.64C31.16 37.35 27.16 36.51 25.7 34.54C24.24 32.56 25.31 29.45 29.11 27.74C31.67 26.59 34.31 26.59 36.21 27.31C36.21 26.17 36.21 20.48 36.21 10.24L13.93 14.14Z" id="gl29z1ses"></path></defs><g><g><g><use xlink:href="#gl29z1ses" opacity="1" fill="#99b1c6" fill-opacity="1"></use><g><use xlink:href="#gl29z1ses" opacity="1" fill-opacity="0" stroke="#000000" stroke-width="1" stroke-opacity="0"></use></g></g></g></g></svg>