<?xml version="1.0" encoding="UTF-8" standalone="no"?>
<!DOCTYPE svg PUBLIC "-//W3C//DTD SVG 1.1//EN" "http://www.w3.org/Graphics/SVG/1.1/DTD/svg11.dtd">
<svg version="1.1" xmlns="http://www.w3.org/2000/svg" xmlns:xlink="http://www.w3.org/1999/xlink" preserveAspectRatio="xMidYMid meet" viewBox="0 0 39 39" width="39" height="39"><defs><path d="M10.27 23.03C4.81 23.15 0.39 27.03 0 31.92C0.34 31.92 2.07 31.92 5.16 31.92C5.17 31.9 5.17 31.89 5.17 31.89C5.42 28.73 6.96 25.79 9.51 23.63C9.75 23.42 10.01 23.22 10.27 23.03M12.33 13.24C12.33 12.54 12.4 11.87 12.53 11.22C11.92 10.87 11.24 10.67 10.53 10.67C7.83 10.67 5.65 13.44 5.65 16.85C5.65 20.15 7.7 22.85 10.28 23.01C11.44 22.17 12.74 21.5 14.11 21.04C14.4 20.64 14.65 20.2 14.85 19.71C13.32 18.21 12.33 15.87 12.33 13.24M25.69 13.17C25.69 8.84 22.92 5.34 19.5 5.34C16.08 5.34 13.31 8.84 13.31 13.17C13.31 17.05 15.53 20.27 18.46 20.89C11.87 21.35 6.62 26.14 6.14 32.14C8.82 32.14 30.18 32.14 32.86 32.14C32.38 26.14 27.13 21.35 20.54 20.89C23.47 20.27 25.69 17.05 25.69 13.17M33.35 17.07C33.35 13.66 31.17 10.9 28.47 10.9C27.76 10.9 27.08 11.09 26.47 11.44C26.6 12.09 26.67 12.77 26.67 13.46C26.67 16.09 25.68 18.43 24.14 19.93C24.35 20.42 24.59 20.86 24.88 21.26C26.26 21.72 27.56 22.39 28.72 23.23C31.3 23.07 33.35 20.38 33.35 17.07M28.73 23.25C28.99 23.44 29.25 23.64 29.49 23.85C32.04 26.01 33.58 28.95 33.83 32.11C33.83 32.11 33.83 32.12 33.84 32.14L39 32.14L39 32.14C35.79 26.29 32.37 23.33 28.73 23.25Z" id="d1iC2jyFfO"></path></defs><g><g><g><use xlink:href="#d1iC2jyFfO" opacity="1" fill="#99b1c6" fill-opacity="1"></use><g><use xlink:href="#d1iC2jyFfO" opacity="1" fill-opacity="0" stroke="#000000" stroke-width="1" stroke-opacity="0"></use></g></g></g></g></svg>