<?xml version="1.0" encoding="UTF-8" standalone="no"?>
<!DOCTYPE svg PUBLIC "-//W3C//DTD SVG 1.1//EN" "http://www.w3.org/Graphics/SVG/1.1/DTD/svg11.dtd">
<svg version="1.1" xmlns="http://www.w3.org/2000/svg" xmlns:xlink="http://www.w3.org/1999/xlink" preserveAspectRatio="xMidYMid meet" viewBox="0 0 39 39" width="39" height="39"><defs><path d="M35.2 21.18C35.2 21.37 35.2 22.95 35.2 23.14C35.2 23.45 35.44 23.7 35.75 23.7C36.05 23.7 36.29 23.45 36.29 23.14C36.29 22.95 36.29 21.37 36.29 21.18C36.29 20.87 36.05 20.62 35.75 20.62C35.44 20.62 35.2 20.87 35.2 21.18Z" id="f1mPNRy3xP"></path><path d="M35.2 21.18C35.2 21.37 35.2 22.95 35.2 23.14C35.2 23.45 35.44 23.7 35.75 23.7C36.05 23.7 36.29 23.45 36.29 23.14C36.29 22.95 36.29 21.37 36.29 21.18C36.29 20.87 36.05 20.62 35.75 20.62C35.44 20.62 35.2 20.87 35.2 21.18Z" id="cc8AzvR2F"></path><path d="M35.74 10.32C36.04 10.32 36.28 10.57 36.28 10.88C36.28 11.68 36.28 18.09 36.28 18.89C36.28 19.19 36.04 19.44 35.74 19.45C35.74 19.45 35.74 19.45 35.75 19.45C36.05 19.45 36.29 19.2 36.29 18.89C36.29 18.09 36.29 11.68 36.29 10.88C36.29 10.57 36.05 10.32 35.75 10.32C35.74 10.32 35.74 10.32 35.74 10.32Z" id="d1HQXk2isz"></path><path d="M36.28 10.88C36.28 10.57 36.04 10.32 35.74 10.32C35.44 10.32 35.2 10.57 35.2 10.88C35.2 11.68 35.2 18.09 35.2 18.89C35.2 19.19 35.44 19.44 35.74 19.45C36.04 19.44 36.28 19.19 36.28 18.89C36.28 17.28 36.28 11.68 36.28 10.88Z" id="cFj2ygMwK"></path><path d="M35.2 10.88C35.2 10.57 35.44 10.32 35.74 10.32C35.74 10.32 35.74 10.32 35.74 10.32C35.43 10.32 35.19 10.57 35.19 10.88C35.19 11.68 35.19 18.09 35.19 18.89C35.19 19.2 35.43 19.45 35.74 19.45C35.74 19.45 35.74 19.45 35.74 19.45C35.44 19.44 35.2 19.19 35.2 18.89C35.2 17.28 35.2 11.68 35.2 10.88Z" id="d1bykm3vhh"></path><path d="M34.32 10.5C34.32 24 34.32 31.5 34.32 33C34.32 33.83 33.62 34.5 32.76 34.5C31.9 34.5 31.2 33.83 31.2 33C31.1 33 30.58 33 29.64 33L29.64 39C31.51 39 32.55 39 32.76 39C36.21 39 39 36.31 39 33C39 30.9 39 14.1 39 12C39 11.17 38.3 10.5 37.44 10.5C37.02 10.5 35.98 10.5 34.32 10.5Z" id="atAviOCe5"></path><path d="M1.56 0C0.7 0 0 0.67 0 1.5C0 4.65 0 29.85 0 33C0 36.31 2.79 39 6.24 39C7.9 39 16.22 39 31.2 39C31.2 16.5 31.2 4 31.2 1.5C31.2 0.67 30.5 0 29.64 0C24.02 0 4.37 0 1.56 0ZM4.68 31.5L4.68 28.5L14.04 28.5L14.04 31.5L4.68 31.5ZM4.68 25.5L4.68 22.5L14.04 22.5L14.04 25.5L4.68 25.5ZM4.68 19.5L4.68 16.5L14.04 16.5L14.04 19.5L4.68 19.5ZM17.16 31.5L17.16 28.5L26.52 28.5L26.52 31.5L17.16 31.5ZM17.16 25.5L17.16 22.5L26.52 22.5L26.52 25.5L17.16 25.5ZM17.16 19.5L17.16 16.5L26.52 16.5L26.52 19.5L17.16 19.5ZM26.52 10.5L4.68 10.5L4.68 6L26.52 6L26.52 10.5Z" id="amPZ4NH6A"></path></defs><g><g><g><use xlink:href="#f1mPNRy3xP" opacity="1" fill="#000000" fill-opacity="0"></use><g><use xlink:href="#f1mPNRy3xP" opacity="1" fill-opacity="0" stroke="#000000" stroke-width="1" stroke-opacity="0"></use></g></g><g><use xlink:href="#cc8AzvR2F" opacity="1" fill="#000000" fill-opacity="0"></use><g><use xlink:href="#cc8AzvR2F" opacity="1" fill-opacity="0" stroke="#000000" stroke-width="1" stroke-opacity="0"></use></g></g><g><use xlink:href="#d1HQXk2isz" opacity="1" fill="#000000" fill-opacity="0"></use><g><use xlink:href="#d1HQXk2isz" opacity="1" fill-opacity="0" stroke="#000000" stroke-width="1" stroke-opacity="0"></use></g></g><g><use xlink:href="#cFj2ygMwK" opacity="1" fill="#000000" fill-opacity="0"></use><g><use xlink:href="#cFj2ygMwK" opacity="1" fill-opacity="0" stroke="#000000" stroke-width="1" stroke-opacity="0"></use></g></g><g><use xlink:href="#d1bykm3vhh" opacity="1" fill="#303030" fill-opacity="1"></use><g><use xlink:href="#d1bykm3vhh" opacity="1" fill-opacity="0" stroke="#000000" stroke-width="1" stroke-opacity="0"></use></g></g><g><use xlink:href="#atAviOCe5" opacity="1" fill="#99b1c6" fill-opacity="1"></use><g><use xlink:href="#atAviOCe5" opacity="1" fill-opacity="0" stroke="#000000" stroke-width="1" stroke-opacity="0"></use></g></g><g><use xlink:href="#amPZ4NH6A" opacity="1" fill="#99b1c6" fill-opacity="1"></use><g><use xlink:href="#amPZ4NH6A" opacity="1" fill-opacity="0" stroke="#000000" stroke-width="1" stroke-opacity="0"></use></g></g></g></g></svg>