<?xml version="1.0" encoding="UTF-8" standalone="no"?>
<!DOCTYPE svg PUBLIC "-//W3C//DTD SVG 1.1//EN" "http://www.w3.org/Graphics/SVG/1.1/DTD/svg11.dtd">
<svg version="1.1" xmlns="http://www.w3.org/2000/svg" xmlns:xlink="http://www.w3.org/1999/xlink" preserveAspectRatio="xMidYMid meet" viewBox="0 0 39 39" width="39" height="39"><defs><path d="M0 0L39 0L39 39L0 39L0 0Z" id="f3mWJxBycn"></path><path d="M34.53 19.5C34.53 18.86 34.47 18.22 34.39 17.6C34.81 17.28 38.2 14.69 38.62 14.37C39.01 14.08 39.12 13.55 38.87 13.12C38.46 12.45 35.26 7.04 34.86 6.37C34.61 5.95 34.09 5.77 33.63 5.95C33.14 6.14 29.14 7.71 28.64 7.91C27.61 7.14 26.48 6.48 25.26 5.99C25.18 5.47 24.58 1.34 24.51 0.82C24.42 0.36 24 0 23.5 0C22.7 0 16.29 0 15.49 0C14.99 0 14.57 0.36 14.49 0.82C14.42 1.34 13.82 5.47 13.74 5.99C12.52 6.48 11.39 7.13 10.36 7.91C9.86 7.71 5.86 6.14 5.37 5.95C4.91 5.78 4.39 5.95 4.14 6.37C3.74 7.04 0.54 12.45 0.13 13.12C-0.12 13.54 -0.01 14.07 0.38 14.37C0.8 14.69 4.18 17.28 4.6 17.6C4.52 18.22 4.46 18.86 4.46 19.5C4.46 20.14 4.52 20.78 4.6 21.4C4.18 21.72 0.8 24.31 0.38 24.63C-0.01 24.92 -0.12 25.45 0.13 25.88C0.54 26.55 3.74 31.96 4.14 32.63C4.39 33.05 4.91 33.23 5.37 33.05C5.86 32.86 9.86 31.29 10.36 31.09C11.39 31.86 12.52 32.52 13.74 33.01C13.82 33.53 14.42 37.66 14.49 38.18C14.57 38.64 14.99 39 15.49 39C16.29 39 22.7 39 23.5 39C24 39 24.42 38.64 24.5 38.18C24.57 37.66 25.17 33.53 25.25 33.01C26.47 32.52 27.6 31.87 28.63 31.09C29.13 31.29 33.13 32.86 33.62 33.05C34.08 33.22 34.6 33.05 34.85 32.63C35.25 31.96 38.45 26.55 38.86 25.88C39.11 25.46 39 24.93 38.61 24.63C38.33 24.41 36.92 23.34 34.39 21.4C34.48 20.56 34.53 19.93 34.53 19.5ZM12.48 19.5C12.48 15.73 15.62 12.68 19.49 12.68C23.37 12.68 26.51 15.73 26.51 19.5C26.51 23.27 23.37 26.32 19.49 26.32C15.62 26.32 12.48 23.27 12.48 19.5Z" id="aqk5TZp19"></path></defs><g><g><g><use xlink:href="#f3mWJxBycn" opacity="1" fill="#000000" fill-opacity="0"></use><g><use xlink:href="#f3mWJxBycn" opacity="1" fill-opacity="0" stroke="#000000" stroke-width="1" stroke-opacity="0"></use></g></g><g><use xlink:href="#aqk5TZp19" opacity="1" fill="#99b1c6" fill-opacity="1"></use><g><use xlink:href="#aqk5TZp19" opacity="1" fill-opacity="0" stroke="#000000" stroke-width="1" stroke-opacity="0"></use></g></g></g></g></svg>